<svg width="80" height="81" fill="none" xmlns="http://www.w3.org/2000/svg"><g clip-path="url(#clip0)"><path d="M24.925 75.535c-2.14-.78-4.086-1.952-6.031-3.123-1.946-1.17-3.697-2.732-5.448-4.099-3.308-3.123-6.226-6.83-8.366-10.735-.973-1.951-1.946-4.098-2.724-6.245-.778-2.147-1.167-4.49-1.557-6.636v-7.222c0-1.171.195-2.342.195-3.318.195-1.171.39-2.342.584-3.318.194-1.171.583-2.147.778-3.318.39-1.172.778-2.147 1.167-3.123.779-2.147 1.946-4.1 3.113-6.05 2.335-3.904 5.448-7.223 8.95-9.955 3.502-2.733 7.588-4.88 11.868-6.246.973-.39 2.14-.585 3.308-.976 1.167-.195 2.14-.39 3.307-.585C35.237.39 36.21.39 37.377.196h4.086C22.396.975 7.415 16.785 7.415 36.108c0 3.318.389 6.636 1.361 9.759.195.975.584 1.951.779 2.927.583 1.757 1.362 3.514 2.334 5.075 1.752 3.318 4.086 6.246 7.005 8.588.194.195.583.586.778.78 1.167.977 2.335 1.757 3.502 2.538 1.556.976 3.308 1.757 4.864 2.537 1.167.39 2.53.976 3.697 1.171 1.167-.39 2.334-.975 3.89-1.951 7.005-6.05 18.095 1.366 25.294-2.538.389-.195.778-.39 1.362-.195.389.195.973.39.778 1.171v.39c-1.362 5.66-8.172 5.66-12.646 5.075-1.362-.195-2.335-.39-3.113-.39-1.362-.195-2.335.39-2.14 1.171 0 .78.972 1.757 3.307 2.342 16.148 2.928 25.876-17.176 30.157-12.687 1.75 2.733-18.873 30.839-53.699 13.663z" fill="url(#paint0_linear)"/><path d="M70.452 59.53c3.502-5.27 5.448-11.71 5.448-18.737 0-18.347-14.009-33.181-31.13-33.181s-31.13 14.834-31.13 33.18c0 7.027 1.946 13.468 5.448 18.738-5.253-6.246-8.56-14.248-8.56-22.836 0-19.128 15.37-34.547 34.242-34.547 18.873 0 34.243 15.42 34.243 34.352 0 8.783-3.113 16.785-8.56 23.031z" fill="url(#paint1_linear)"/><path d="M61.697 32.205h-8.755c-.973 0-1.751-.78-1.751-1.756V21.86c0-.976-.779-1.757-1.751-1.757h-9.728c-.973 0-1.751.78-1.751 1.757v8.588c0 .975-.779 1.756-1.751 1.756h-8.367c-.972 0-1.75.78-1.75 1.757v9.954c0 .976.778 1.757 1.75 1.757h8.367c.972 0 1.75.78 1.75 1.756v8.588c0 .976.779 1.757 1.752 1.757h9.922c.973 0 1.751-.78 1.751-1.757V47.43c0-.976.779-1.756 1.751-1.756h8.756c.972 0 1.75-.781 1.75-1.757v-9.954c-.194-1.171-.972-1.757-1.945-1.757z" fill="url(#paint2_linear)"/></g><defs><linearGradient id="paint0_linear" x1="11.105" y1="-6.444" x2="55.433" y2="87.964" gradientUnits="userSpaceOnUse"><stop offset=".02" stop-color="#3FA1D5"/><stop offset=".484" stop-color="#31A666"/><stop offset="1" stop-color="#D8D70C"/></linearGradient><linearGradient id="paint1_linear" x1="10.512" y1="30.823" x2="79.088" y2="30.823" gradientUnits="userSpaceOnUse"><stop offset=".009" stop-color="#31A666"/><stop offset="1" stop-color="#D8D70C"/></linearGradient><linearGradient id="paint2_linear" x1="62.591" y1="62.135" x2="19.245" y2="5.538" gradientUnits="userSpaceOnUse"><stop stop-color="#38A762"/><stop offset="1" stop-color="#3FA1D5"/></linearGradient><clipPath id="clip0"><path fill="#fff" transform="translate(.8)" d="M0 0h78.213v81H0z"/></clipPath></defs></svg>