<svg width="637" height="654" fill="none" xmlns="http://www.w3.org/2000/svg"><path fill-rule="evenodd" clip-rule="evenodd" d="M196.488 609.809c-17.43-6.313-33.276-15.783-49.121-25.252l-.001-.001c-11.683-6.983-22.505-15.681-33.101-24.197l-.001-.001c-3.774-3.034-7.52-6.045-11.266-8.947-26.938-25.253-50.707-55.241-68.137-86.807-7.923-15.783-15.846-33.145-22.184-50.506-5.854-16.034-9.005-33.414-11.948-49.653v-.003L0 360.435v-58.398c0-4.95.433-9.901.846-14.626.378-4.313.739-8.439.739-12.205 1.584-9.47 3.169-18.94 4.753-26.831.793-4.735 1.981-9.075 3.17-13.416 1.188-4.34 2.376-8.681 3.169-13.416 3.169-9.469 6.338-17.361 9.507-25.253 6.338-17.361 15.846-33.144 25.353-48.927 19.015-31.567 44.369-58.398 72.891-80.494 28.522-22.097 61.798-39.458 96.659-50.506 4.417-1.76 9.326-3.03 14.452-4.355 4.071-1.052 8.278-2.14 12.486-3.537 4.754-.789 9.111-1.578 13.469-2.367h.001c4.357-.79 8.714-1.579 13.468-2.368 4.753-.789 9.111-1.184 13.469-1.578 4.357-.395 8.715-.79 13.469-1.578h33.276C175.888 6.893 53.876 134.736 53.876 290.989c0 26.832 3.169 53.663 11.092 78.916.792 3.946 1.98 7.892 3.169 11.837 1.188 3.946 2.377 7.892 3.169 11.838 4.754 14.204 11.092 28.409 19.015 41.036 14.261 26.831 33.276 50.506 57.045 69.446l6.338 6.313c9.507 7.891 19.014 14.204 28.521 20.517l.001.001c9.556 5.948 20.011 11 30.01 15.831h.001l.001.001c3.265 1.578 6.482 3.132 9.603 4.686 2.663.884 5.45 1.892 8.292 2.92 7.305 2.642 14.97 5.414 21.815 6.55 9.507-3.157 19.015-7.892 31.691-15.783 31.076-26.654 72.028-20.989 112.352-15.411 33.696 4.662 66.953 9.263 93.643-5.107 3.17-1.579 6.339-3.157 11.092-1.579.282.14.576.281.876.424 3.088 1.472 6.907 3.293 5.463 9.046v3.157c-11.092 45.771-66.552 45.771-102.998 41.036-2.971-.423-5.716-.846-8.263-1.238-6.96-1.073-12.45-1.919-17.09-1.919-11.092-1.578-19.015 3.157-17.43 9.47 0 6.314 7.923 14.205 26.937 18.94 77.506 13.952 136.852-36.775 179.659-73.365 29.833-25.5 51.634-44.134 65.951-29.225 14.261 22.096-153.704 249.373-437.343 110.482zm370.791-129.422c28.522-42.615 44.368-94.699 44.368-151.519 0-148.361-114.09-268.313-253.532-268.313-139.443 0-253.533 119.952-253.533 268.313 0 56.82 15.846 108.904 44.368 151.519-42.783-50.507-69.721-115.217-69.721-184.663 0-154.675 125.182-279.362 278.886-279.362S637 141.05 637 294.146c0 71.024-25.353 135.734-69.721 186.241zM424.667 259.422h71.306c7.923 0 14.261 4.735 15.846 14.205v80.494c0 7.891-6.339 14.204-14.262 14.204h-71.306c-7.922 0-14.261 6.314-14.261 14.205v69.446c0 7.892-6.338 14.205-14.261 14.205h-80.813c-7.923 0-14.262-6.313-14.262-14.205V382.53c0-7.891-6.338-14.205-14.261-14.205h-68.137c-7.922 0-14.261-6.313-14.261-14.204v-80.494c0-7.892 6.339-14.205 14.261-14.205h68.137c7.923 0 14.261-6.313 14.261-14.205v-69.446c0-7.891 6.339-14.205 14.262-14.205h79.229c7.922 0 14.261 6.314 14.261 14.205v69.446c0 7.892 6.338 14.205 14.261 14.205z" fill="url(#paint0_linear)" fill-opacity=".2"/><defs><linearGradient id="paint0_linear" x1="503.255" y1="501.45" x2="153.399" y2="41.368" gradientUnits="userSpaceOnUse"><stop stop-color="#38A762"/><stop offset="1" stop-color="#3FA1D5"/></linearGradient></defs></svg>