<svg width="194" height="199" fill="none" xmlns="http://www.w3.org/2000/svg"><g clip-path="url(#clip0)"><path fill-rule="evenodd" clip-rule="evenodd" d="M59.84 185.574c-5.308-1.918-10.133-4.795-14.96-7.672-3.558-2.122-6.853-4.764-10.08-7.352-1.15-.922-2.291-1.836-3.432-2.718-8.204-7.672-15.443-16.783-20.751-26.374-2.413-4.795-4.826-10.07-6.756-15.344-1.783-4.872-2.743-10.152-3.64-15.086-.073-.408-.147-.815-.221-1.218V92.068c0-1.504.132-3.008.258-4.444.115-1.31.225-2.564.225-3.708.482-2.877.965-5.754 1.447-8.152.242-1.438.604-2.757.966-4.076.361-1.318.723-2.637.965-4.076.965-2.877 1.93-5.274 2.895-7.672 1.93-5.274 4.826-10.07 7.722-14.865 5.79-9.59 13.512-17.742 22.199-24.455 8.686-6.714 18.82-11.988 29.437-15.345 1.346-.534 2.84-.92 4.402-1.323 1.24-.32 2.521-.65 3.802-1.074 1.448-.24 2.775-.48 4.102-.72 1.328-.24 2.655-.48 4.102-.719 1.448-.24 2.775-.36 4.102-.48C87.952.84 89.28.72 90.726.48H100.861C53.567 2.398 16.408 41.239 16.408 88.711c0 8.152.965 16.304 3.378 23.976.241 1.199.603 2.398.965 3.597.362 1.198.724 2.397.965 3.596 1.448 4.316 3.378 8.631 5.791 12.467 4.344 8.152 10.135 15.345 17.374 21.099l1.93 1.918c2.895 2.398 5.79 4.316 8.686 6.234 2.91 1.807 6.095 3.342 9.14 4.81.995.479 1.975.952 2.925 1.424.811.268 1.66.575 2.526.887 2.224.802 4.559 1.645 6.643 1.99 2.896-.959 5.791-2.398 9.652-4.795 9.464-8.098 21.936-6.377 34.217-4.682 10.262 1.416 20.391 2.814 28.519-1.552.966-.48 1.931-.959 3.379-.48.085.043.175.086.266.129.941.447 2.104 1.001 1.664 2.749v.959c-3.378 13.906-20.269 13.906-31.368 12.467-.905-.128-1.741-.257-2.517-.376-2.12-.326-3.792-.583-5.205-.583-3.378-.479-5.791.959-5.308 2.877 0 1.918 2.413 4.316 8.204 5.754 23.604 4.239 41.678-11.172 54.715-22.289 9.086-7.747 15.726-13.409 20.086-8.879 4.343 6.713-46.811 75.764-133.194 33.566zm112.926-39.321c8.687-12.947 13.513-28.771 13.513-46.033 0-45.075-34.747-81.518-77.214-81.518-42.468 0-77.214 36.443-77.214 81.518 0 17.262 4.826 33.086 13.512 46.033-13.03-15.344-21.234-35.004-21.234-56.103 0-46.993 38.125-84.875 84.936-84.875C155.876 5.275 194 43.157 194 89.67c0 21.579-7.721 41.239-21.234 56.583zm-43.433-67.132h21.717c2.413 0 4.343 1.438 4.826 4.315v24.456c0 2.397-1.931 4.315-4.344 4.315h-21.716c-2.413 0-4.343 1.918-4.343 4.316v21.099c0 2.397-1.931 4.315-4.344 4.315H96.517c-2.412 0-4.343-1.918-4.343-4.315v-21.099c0-2.398-1.93-4.316-4.343-4.316H67.08c-2.413 0-4.344-1.918-4.344-4.315V83.436c0-2.397 1.93-4.315 4.344-4.315h20.75c2.414 0 4.344-1.918 4.344-4.316V53.706c0-2.398 1.93-4.316 4.343-4.316h24.13c2.413 0 4.343 1.919 4.343 4.316v21.099c0 2.397 1.93 4.316 4.343 4.316z" fill="url(#paint0_linear)" fill-opacity=".2"/></g><defs><linearGradient id="paint0_linear" x1="153.268" y1="152.653" x2="47.044" y2="12.625" gradientUnits="userSpaceOnUse"><stop stop-color="#38A762"/><stop offset="1" stop-color="#3FA1D5"/></linearGradient><clipPath id="clip0"><path fill="#fff" d="M0 0h194v199H0z"/></clipPath></defs></svg>